<svg width="29" height="26" viewBox="0 0 29 26" fill="none" xmlns="http://www.w3.org/2000/svg">
<path fill-rule="evenodd" clip-rule="evenodd" d="M14.9303 21.4447C16.1959 22.098 17.6556 22.4722 19.2109 22.4722C19.4613 22.4722 19.7115 22.462 19.959 22.434C20.7128 22.3809 21.4666 22.5906 22.0966 23.0308L24.656 24.8172C24.8332 24.9412 25.0637 24.9499 25.2494 24.84C25.435 24.7297 25.5447 24.52 25.5306 24.2983L25.2943 20.2147C27.024 18.6832 28 16.5671 28 14.3554C28 10.9006 25.6544 7.93087 22.33 6.76449C20.4907 3.35578 16.6741 1 12.25 1C6.02313 1 1 5.66784 1 11.3705C1 14.2213 2.27125 16.9463 4.51844 18.906L4.20622 24.2983C4.19497 24.52 4.30466 24.7297 4.49029 24.84C4.67591 24.9502 4.90657 24.9412 5.08376 24.8172L8.27034 22.5927C9.19565 21.9472 10.2981 21.634 11.4091 21.7008C11.6931 21.7311 11.9716 21.7407 12.25 21.7407C13.1725 21.7407 14.0697 21.638 14.9303 21.4447ZM23.0022 8.31558C23.3256 9.28274 23.5 10.3086 23.5 11.3705C23.5 15.637 20.6875 19.3246 16.6628 20.9112C17.4615 21.1667 18.3194 21.3055 19.2109 21.3055C19.4219 21.3055 19.6328 21.2977 19.8409 21.2738C19.8494 21.2729 19.855 21.272 19.8635 21.2717C20.876 21.1967 21.8828 21.4753 22.7237 22.063L24.3409 23.1906L24.1553 19.9881C24.1441 19.7985 24.2228 19.615 24.3663 19.4966C25.9581 18.1835 26.875 16.3175 26.875 14.3554C26.875 11.761 25.3056 9.50937 23.0022 8.31558ZM9.1647 12.375L9.92406 14.5039L11.9772 15.2917L9.92406 16.0795L9.1647 18.2083L8.40533 16.0795L6.3522 15.2917L8.40533 14.5039L9.1647 12.375ZM14.2188 4.79167L15.6615 8.83649L19.5625 10.3333L15.6615 11.8302L14.2188 15.875L12.776 11.8302L8.875 10.3333L12.776 8.83649L14.2188 4.79167Z" fill="#D8DBE6"/>
</svg>
