<svg width="22" height="23" viewBox="0 0 22 23" fill="none" xmlns="http://www.w3.org/2000/svg">
<path fill-rule="evenodd" clip-rule="evenodd" d="M7.07323 6.78868C7.55098 6.68372 8.11327 6.65149 8.75 6.65149H12.75C13.3867 6.65149 13.949 6.68372 14.4268 6.78868C14.913 6.89549 15.3583 7.08761 15.7111 7.44041C16.0639 7.79321 16.256 8.23848 16.3628 8.72472C16.4678 9.20247 16.5 9.76472 16.5 10.4015V21.4015C16.5 21.8157 16.1642 22.1515 15.75 22.1515H5.75C5.33579 22.1515 5 21.8157 5 21.4015V10.4015C5 9.76472 5.03223 9.20247 5.13719 8.72472C5.24401 8.23848 5.43612 7.79321 5.78892 7.44041C6.14172 7.08761 6.58699 6.89549 7.07323 6.78868ZM6.60225 9.04657C6.53252 9.364 6.5 9.79722 6.5 10.4015V20.6515H15V10.4015C15 9.79722 14.9675 9.364 14.8977 9.04657C14.8299 8.73763 14.7374 8.58802 14.6504 8.50107C14.5635 8.41412 14.4139 8.32161 14.1049 8.25374C13.7875 8.18401 13.3543 8.15149 12.75 8.15149H8.75C8.14573 8.15149 7.71252 8.18401 7.39508 8.25374C7.08614 8.32161 6.93653 8.41412 6.84958 8.50107C6.76263 8.58802 6.67012 8.73763 6.60225 9.04657Z" fill="white"/>
<path fill-rule="evenodd" clip-rule="evenodd" d="M9 11.4015C9 10.9873 9.3358 10.6515 9.75 10.6515H11.75C12.1642 10.6515 12.5 10.9873 12.5 11.4015C12.5 11.8157 12.1642 12.1515 11.75 12.1515H9.75C9.3358 12.1515 9 11.8157 9 11.4015ZM9 14.4015C9 13.9873 9.3358 13.6515 9.75 13.6515H11.75C12.1642 13.6515 12.5 13.9873 12.5 14.4015C12.5 14.8157 12.1642 15.1515 11.75 15.1515H9.75C9.3358 15.1515 9 14.8157 9 14.4015ZM9 17.4015C9 16.9873 9.3358 16.6515 9.75 16.6515H11.75C12.1642 16.6515 12.5 16.9873 12.5 17.4015C12.5 17.8157 12.1642 18.1515 11.75 18.1515H9.75C9.3358 18.1515 9 17.8157 9 17.4015Z" fill="white"/>
<path fill-rule="evenodd" clip-rule="evenodd" d="M12.6488 0.696051C12.9311 0.760651 13.233 0.892991 13.5383 1.04885L17.913 3.28253C18.4227 3.54278 18.8558 3.76387 19.1951 3.98438C19.557 4.21949 19.8649 4.48594 20.0929 4.86279C20.3204 5.2387 20.4151 5.63626 20.4588 6.06803C20.5 6.4748 20.5 6.96757 20.5 7.55071V21.4015C20.5 21.8157 20.1642 22.1515 19.75 22.1515C19.3358 22.1515 19 21.8157 19 21.4015V7.5871C19 6.95787 18.9991 6.54145 18.9665 6.21913C18.9355 5.91336 18.8809 5.75708 18.8097 5.63945C18.739 5.52276 18.6286 5.40511 18.3779 5.24218C18.112 5.0694 17.7495 4.88329 17.1978 4.60158L12.8562 2.38479C12.7165 2.31348 12.6041 2.26195 12.5146 2.22556C12.5055 2.32838 12.5 2.46093 12.5 2.63019V7.10496C12.5 7.51917 12.1642 7.85496 11.75 7.85496C11.3358 7.85496 11 7.51917 11 7.10496V2.63019C11 2.29085 11.0175 1.96501 11.0826 1.68636C11.146 1.41484 11.2844 1.05952 11.6309 0.835271C11.9838 0.606881 12.3689 0.632031 12.6488 0.696051ZM12.2761 2.15127C12.2739 2.1512 12.2727 2.15103 12.2727 2.15103L12.2761 2.15127Z" fill="white"/>
<path fill-rule="evenodd" clip-rule="evenodd" d="M2.50832 12.1598C2.50336 12.2175 2.5 12.2957 2.5 12.4015V21.4015C2.5 21.8157 2.16421 22.1515 1.75 22.1515C1.33579 22.1515 1 21.8157 1 21.4015V12.4015C1 12.1784 1.01065 11.948 1.05737 11.7353C1.10596 11.5141 1.2032 11.2671 1.40942 11.0609C1.61564 10.8547 1.86261 10.7574 2.0838 10.7088C2.29648 10.6621 2.52694 10.6515 2.75 10.6515H5.75C6.16421 10.6515 6.5 10.9873 6.5 11.4015C6.5 11.8157 6.16421 12.1515 5.75 12.1515H2.75C2.64428 12.1515 2.56601 12.1548 2.50832 12.1598Z" fill="white"/>
<path fill-rule="evenodd" clip-rule="evenodd" d="M0 21.4015C0 20.9873 0.33579 20.6515 0.75 20.6515H20.75C21.1642 20.6515 21.5 20.9873 21.5 21.4015C21.5 21.8157 21.1642 22.1515 20.75 22.1515H0.75C0.33579 22.1515 0 21.8157 0 21.4015Z" fill="white"/>
</svg>
