<svg width="25" height="25" viewBox="0 0 25 25" fill="none" xmlns="http://www.w3.org/2000/svg">
<path d="M12.5 0.390625C10.105 0.390625 7.76377 1.10083 5.7724 2.43142C3.78102 3.76202 2.22893 5.65324 1.3124 7.86594C0.395872 10.0786 0.156066 12.5134 0.623309 14.8624C1.09055 17.2114 2.24386 19.3691 3.93738 21.0626C5.63091 22.7561 7.78859 23.9095 10.1376 24.3767C12.4866 24.8439 14.9214 24.6041 17.1341 23.6876C19.3468 22.7711 21.238 21.219 22.5686 19.2276C23.8992 17.2362 24.6094 14.895 24.6094 12.5C24.6058 9.28951 23.3288 6.21154 21.0586 3.94138C18.7885 1.67121 15.7105 0.394244 12.5 0.390625ZM9.48946 11.4426C9.52571 11.4063 9.56877 11.3775 9.61615 11.3579C9.66354 11.3382 9.71433 11.3281 9.76563 11.3281C9.81693 11.3281 9.86772 11.3382 9.91511 11.3579C9.96249 11.3775 10.0055 11.4063 10.0418 11.4426L12.1094 13.5101V6.25C12.1094 6.1464 12.1505 6.04704 12.2238 5.97379C12.297 5.90053 12.3964 5.85938 12.5 5.85938C12.6036 5.85938 12.703 5.90053 12.7762 5.97379C12.8495 6.04704 12.8906 6.1464 12.8906 6.25V13.5101L14.9582 11.4426C15.0319 11.3714 15.1306 11.332 15.233 11.3329C15.3354 11.3338 15.4334 11.3749 15.5058 11.4473C15.5782 11.5198 15.6193 11.6177 15.6202 11.7202C15.6211 11.8226 15.5817 11.9212 15.5106 11.9949L12.7765 14.729C12.7023 14.8007 12.6032 14.8407 12.5 14.8407C12.3968 14.8407 12.2977 14.8007 12.2235 14.729L9.48946 11.9949C9.45317 11.9587 9.42438 11.9156 9.40474 11.8682C9.3851 11.8208 9.37499 11.77 9.37499 11.7188C9.37499 11.6675 9.3851 11.6167 9.40474 11.5693C9.42438 11.5219 9.45317 11.4788 9.48946 11.4426ZM19.1406 17.9688C19.1403 18.2794 19.0167 18.5773 18.797 18.797C18.5773 19.0167 18.2795 19.1403 17.9688 19.1406H7.03126C6.72056 19.1403 6.42269 19.0167 6.20299 18.797C5.9833 18.5773 5.85972 18.2794 5.85938 17.9688V13.2812C5.85938 13.1776 5.90054 13.0783 5.97379 13.005C6.04705 12.9318 6.14641 12.8906 6.25001 12.8906C6.35361 12.8906 6.45296 12.9318 6.52622 13.005C6.59948 13.0783 6.64063 13.1776 6.64063 13.2812V17.9688C6.64072 18.0723 6.68191 18.1716 6.75514 18.2449C6.82838 18.3181 6.92768 18.3593 7.03126 18.3594H17.9688C18.0723 18.3593 18.1716 18.3181 18.2449 18.2449C18.3181 18.1716 18.3593 18.0723 18.3594 17.9688V13.2812C18.3594 13.1776 18.4005 13.0783 18.4738 13.005C18.547 12.9318 18.6464 12.8906 18.75 12.8906C18.8536 12.8906 18.953 12.9318 19.0262 13.005C19.0995 13.0783 19.1406 13.1776 19.1406 13.2812V17.9688Z" fill="#F0F0F0"/>
</svg>
