<svg width="30" height="32" viewBox="0 0 30 32" fill="none" xmlns="http://www.w3.org/2000/svg">
<path d="M28.1096 21.5922C27.6785 21.3383 27.1858 21.2786 26.6931 21.398C26.3697 21.4727 26.0772 21.637 25.8462 21.8609L23.4596 20.4872L25.6306 19.2776C25.7076 19.3523 25.7846 19.412 25.877 19.4568C26.0926 19.5912 26.3389 19.651 26.5853 19.651C27.0626 19.651 27.5245 19.412 27.7709 18.9939C27.9557 18.6804 28.0173 18.322 27.9249 17.9785C27.8325 17.6351 27.6015 17.3364 27.2936 17.1573C26.6315 16.7839 25.7846 16.993 25.3997 17.6202C25.2457 17.874 25.1841 18.1428 25.2149 18.4265L22.5203 19.9347L18.7633 17.7695L21.6735 17.7844V16.8437L17.1004 16.8138L15.6068 15.9477L16.9156 15.1862H21.6735V14.2454H18.5478L22.5203 11.9608L25.2149 13.469C25.1841 13.7378 25.2457 14.0215 25.3997 14.2753C25.6614 14.6934 26.1234 14.9323 26.5853 14.9323C26.8317 14.9323 27.0626 14.8726 27.2936 14.7382C27.6169 14.559 27.8325 14.2604 27.9249 13.9169C28.0173 13.5735 27.9557 13.2151 27.7709 12.9015C27.386 12.2594 26.5237 12.0504 25.877 12.4386C25.7846 12.4834 25.7076 12.5581 25.6306 12.6178L23.4596 11.4083L25.8462 10.0345C26.0772 10.2585 26.3697 10.4078 26.6931 10.4974C26.8471 10.5422 27.001 10.5572 27.155 10.5572C27.4937 10.5572 27.8171 10.4676 28.1096 10.3033C28.5408 10.0495 28.8487 9.66122 28.9719 9.19832C29.0951 8.73542 29.0181 8.24265 28.7717 7.82454C28.2482 6.9734 27.0934 6.68969 26.2158 7.19739C25.7846 7.45124 25.4767 7.83948 25.3535 8.30238C25.2765 8.61596 25.2765 8.92954 25.3689 9.24312L22.9823 10.6169L22.9207 8.19785C23.0131 8.16799 23.1054 8.12319 23.1978 8.07839C23.8599 7.70509 24.0755 6.86888 23.6752 6.24172C23.4904 5.92814 23.1824 5.71909 22.8283 5.62949C22.4741 5.5399 22.1046 5.59963 21.7813 5.77882C21.4579 5.958 21.2423 6.25665 21.15 6.60009C21.0576 6.94354 21.1192 7.30191 21.3039 7.61549C21.4579 7.86934 21.6735 8.04853 21.9506 8.16799L22.0276 11.1843L19.9028 12.4088V9.87028H18.9327V12.9613L17.239 13.9319V9.79561H16.2689V14.4993L15.0371 15.216V7.33178L17.7471 5.85348C17.9781 6.01773 18.2552 6.10733 18.5632 6.10733C19.333 6.10733 19.9489 5.51003 19.9489 4.76341C19.9489 4.0168 19.333 3.41951 18.5632 3.41951C17.7933 3.41951 17.1774 4.0168 17.1774 4.76341C17.1774 4.86794 17.1928 4.95753 17.2082 5.06206L15.0217 6.24172V3.5539C15.8224 3.34484 16.4075 2.64302 16.4075 1.80681C16.4075 0.806347 15.5761 0 14.5444 0C13.5128 0 12.6813 0.806347 12.6813 1.80681C12.6813 2.64302 13.2664 3.34484 14.0671 3.5539V6.24172L11.8806 5.06206C11.896 4.97247 11.9114 4.86794 11.9114 4.76341C11.9114 4.0168 11.2955 3.41951 10.5257 3.41951C9.75578 3.41951 9.13988 4.0168 9.13988 4.76341C9.13988 5.51003 9.75578 6.10733 10.5257 6.10733C10.8336 6.10733 11.1108 6.01773 11.3417 5.85348L14.0517 7.33178V15.231L12.8353 14.5441V12.1773V9.81055H11.8652V13.9916L10.1715 13.0359V9.88521H9.20147V12.4984L7.03042 11.259L7.07661 8.24265C7.33837 8.13813 7.56933 7.944 7.72331 7.69015C8.10824 7.04806 7.87728 6.22679 7.23058 5.85348C6.56849 5.48017 5.72163 5.70415 5.33669 6.33131C4.95175 6.9734 5.18271 7.79468 5.82941 8.16799C5.92179 8.21279 6.01418 8.25758 6.10656 8.28745L6.06037 10.7065L3.67375 9.34764C3.88932 8.57116 3.56597 7.73495 2.81149 7.30191C1.91843 6.79421 0.779015 7.09286 0.255498 7.95894C-0.268018 8.82501 0.039927 9.93 0.932984 10.4377C1.22554 10.602 1.54889 10.6916 1.87224 10.6916C2.36496 10.6916 2.84228 10.5124 3.19642 10.1689L5.58304 11.5278L3.42739 12.7522C3.3504 12.6925 3.27342 12.6178 3.18103 12.573C2.85768 12.3938 2.48814 12.349 2.134 12.4386C1.77986 12.5282 1.47191 12.7522 1.28714 13.0658C1.10236 13.3794 1.05617 13.7378 1.14855 14.0812C1.24094 14.4246 1.4719 14.7233 1.79525 14.9025C2.01082 15.0219 2.24178 15.0817 2.48814 15.0817C2.61132 15.0817 2.7191 15.0667 2.84228 15.0369C3.19643 14.9473 3.50438 14.7233 3.68915 14.4097C3.84312 14.1559 3.90472 13.8721 3.87392 13.6034L6.55309 12.0803L10.4795 14.3052H7.50774V15.2459H12.1424L13.482 16.0075L11.9576 16.8735L7.50774 16.9034V17.8441L10.2639 17.8292L6.55309 19.9347L3.87392 18.4116C3.90472 18.1279 3.84312 17.8441 3.68915 17.6052C3.50438 17.2916 3.19643 17.0677 2.84228 16.9781C2.48814 16.8885 2.1186 16.9333 1.79525 17.1125C1.4719 17.2916 1.24094 17.5903 1.14855 17.9337C1.05617 18.2772 1.10236 18.6356 1.28714 18.9491C1.47191 19.2627 1.77986 19.4867 2.134 19.5763C2.25718 19.6062 2.36496 19.6211 2.48814 19.6211C2.7345 19.6211 2.96547 19.5614 3.18103 19.4419C3.27342 19.3971 3.3504 19.3374 3.42739 19.2627L5.58304 20.4872L3.19642 21.846C2.61132 21.2786 1.68747 21.1442 0.948388 21.5623C0.517256 21.8012 0.2093 22.2044 0.0861197 22.6673C-0.0370606 23.1302 0.0245371 23.623 0.286295 24.0411C0.532656 24.4592 0.948384 24.7578 1.42571 24.8773C1.57968 24.9221 1.74906 24.937 1.90304 24.937C2.22639 24.937 2.54973 24.8474 2.84228 24.6832C3.58137 24.265 3.92011 23.4139 3.70454 22.6374L6.09116 21.2786L6.13736 23.6976C6.04498 23.7275 5.95258 23.7723 5.8602 23.8171C5.53685 23.9963 5.30589 24.2949 5.21351 24.6384C5.12112 24.9818 5.16731 25.3402 5.35208 25.6538C5.53685 25.9673 5.8448 26.1913 6.19895 26.2809C6.32213 26.3108 6.42991 26.3257 6.55309 26.3257C6.79945 26.3257 7.03041 26.266 7.24598 26.1465C7.56932 25.9673 7.80029 25.6687 7.89267 25.3252C7.98506 24.9818 7.93887 24.6234 7.7541 24.3098C7.60013 24.056 7.36916 23.8619 7.1074 23.7573L7.06121 20.741L9.23226 19.5016V22.1148H10.2023V18.9641L11.896 18.0084V22.1895H12.8661V17.4559L14.0825 16.769V24.6682L11.3725 26.1465C11.1416 25.9823 10.8644 25.8927 10.5564 25.8927C9.78657 25.8927 9.17067 26.49 9.17067 27.2366C9.17067 27.9832 9.78657 28.5805 10.5564 28.5805C11.3263 28.5805 11.9422 27.9832 11.9422 27.2366C11.9422 27.1321 11.9268 27.0425 11.9114 26.9379L14.0979 25.7583V28.4461C13.2972 28.6552 12.7121 29.357 12.7121 30.1932C12.7121 31.1937 13.5436 32 14.5752 32C15.6068 32 16.4383 31.1937 16.4383 30.1932C16.4383 29.357 15.8532 28.6552 15.0525 28.4461V25.7583L17.239 26.9379C17.2236 27.0275 17.2082 27.1321 17.2082 27.2366C17.2082 27.9832 17.8241 28.5805 18.594 28.5805C19.3638 28.5805 19.9797 27.9832 19.9797 27.2366C19.9797 26.49 19.3638 25.8927 18.594 25.8927C18.286 25.8927 18.0089 25.9823 17.7779 26.1465L15.0679 24.6682V16.7839L16.2997 17.5007V22.1148H17.2698V17.9785L18.9635 18.9491V22.0401H19.9336V19.5016L22.0584 20.7261L21.9814 23.7424C21.7197 23.8469 21.4887 24.0411 21.3347 24.2949C20.9498 24.937 21.1654 25.7583 21.8121 26.1316C22.0276 26.251 22.274 26.3257 22.5203 26.3257C22.6281 26.3257 22.7513 26.3108 22.8591 26.2809C23.2132 26.1913 23.5212 25.9673 23.706 25.6687C24.0909 25.0266 23.8753 24.2053 23.2286 23.832C23.1362 23.7872 23.0439 23.7424 22.9515 23.7126L23.0131 21.2935L25.3997 22.6673C25.1841 23.4438 25.5075 24.28 26.2465 24.713C26.5391 24.8773 26.8625 24.9669 27.2012 24.9669C27.3552 24.9669 27.5091 24.9519 27.6631 24.9071C28.1404 24.7877 28.5562 24.489 28.8025 24.0709C29.0643 23.6528 29.1259 23.175 29.0027 22.6972C28.8333 22.2343 28.5254 21.8311 28.1096 21.5922ZM26.108 18.0233C26.2157 17.8591 26.4005 17.7545 26.5853 17.7545C26.6777 17.7545 26.7855 17.7844 26.8624 17.8292C26.9856 17.9039 27.078 18.0233 27.1088 18.1577C27.1396 18.2921 27.1242 18.4414 27.0472 18.5609C26.8932 18.8147 26.5545 18.9043 26.2927 18.755C26.1696 18.6804 26.0772 18.5609 26.0464 18.4265C26.0156 18.2921 26.031 18.1428 26.108 18.0233ZM26.2927 13.1405C26.3851 13.0957 26.4775 13.0658 26.5699 13.0658C26.7547 13.0658 26.9394 13.1554 27.0472 13.3346C27.1242 13.454 27.1396 13.6034 27.1088 13.7378C27.078 13.8721 26.9856 13.9916 26.8624 14.0663C26.6007 14.2156 26.2619 14.1409 26.108 13.8721C26.031 13.7527 26.0156 13.6034 26.0464 13.469C26.0772 13.3196 26.1696 13.2151 26.2927 13.1405ZM21.9506 6.77928C21.9814 6.64489 22.0738 6.52543 22.197 6.45077C22.3202 6.37611 22.4742 6.36118 22.6127 6.39104C22.7513 6.42091 22.8745 6.5105 22.9515 6.62996C23.0285 6.74942 23.0439 6.89874 23.0131 7.03313C22.9823 7.16752 22.8899 7.28698 22.7667 7.36164C22.6435 7.43631 22.4895 7.45124 22.351 7.42137C22.2124 7.39151 22.0892 7.30191 22.0122 7.18246C21.9352 7.063 21.9044 6.91367 21.9506 6.77928ZM18.5478 4.21092C18.8557 4.21092 19.1021 4.44984 19.1021 4.74849C19.1021 5.04713 18.8557 5.28605 18.5478 5.28605C18.2398 5.28605 17.9935 5.04713 17.9935 4.74849C18.0089 4.44984 18.2552 4.21092 18.5478 4.21092ZM9.97134 4.74849C9.97134 4.44984 10.2177 4.21092 10.5257 4.21092C10.8336 4.21092 11.08 4.44984 11.08 4.74849C11.08 5.04713 10.8336 5.28605 10.5257 5.28605C10.2177 5.28605 9.97134 5.0322 9.97134 4.74849ZM6.04497 6.70462C6.15275 6.54036 6.33753 6.43584 6.5223 6.43584C6.61468 6.43584 6.70707 6.4657 6.79945 6.5105C6.92263 6.58516 7.01502 6.70462 7.06121 6.83901C7.09201 6.9734 7.07661 7.12273 6.99962 7.24218C6.92263 7.36164 6.79945 7.45124 6.66087 7.49604C6.52229 7.5259 6.36832 7.51097 6.24514 7.43631C6.12196 7.36165 6.02958 7.24218 5.98339 7.10779C5.93719 6.9734 5.96798 6.82408 6.04497 6.70462ZM2.96546 13.9617C2.88847 14.0812 2.76529 14.1708 2.62671 14.2156C2.48814 14.2455 2.33417 14.2305 2.21099 14.1559C2.08781 14.0812 1.99542 13.9617 1.94923 13.8273C1.91843 13.693 1.93382 13.5436 2.01081 13.4242C2.0878 13.3047 2.21098 13.2151 2.34956 13.1703C2.39575 13.1554 2.44195 13.1554 2.48814 13.1554C2.58053 13.1554 2.67291 13.1853 2.7653 13.2301C3.02705 13.3794 3.11944 13.7079 2.96546 13.9617ZM2.7653 18.6654C2.64212 18.7401 2.48814 18.755 2.34956 18.7251C2.21098 18.6953 2.0878 18.6057 2.01081 18.4713C1.93382 18.3518 1.91843 18.2025 1.94923 18.0681C1.98002 17.9337 2.07241 17.8143 2.21099 17.7396C2.30337 17.6948 2.39576 17.665 2.48814 17.665C2.53433 17.665 2.58052 17.665 2.62671 17.6799C2.76529 17.7097 2.88847 17.7993 2.96546 17.9337C3.04245 18.0532 3.05785 18.2025 3.02706 18.3369C2.98086 18.4713 2.88848 18.5908 2.7653 18.6654ZM7.06121 25.0565C7.03042 25.1909 6.93803 25.3103 6.79945 25.385C6.67627 25.4596 6.5223 25.4746 6.38372 25.4447C6.24514 25.4148 6.12196 25.3252 6.04497 25.1909C5.96798 25.0565 5.95259 24.9221 5.98339 24.7877C6.01418 24.6533 6.10656 24.5338 6.24514 24.4592C6.33752 24.4144 6.42991 24.3845 6.5223 24.3845C6.70707 24.3845 6.89184 24.4741 6.99962 24.6533C7.07661 24.7727 7.09201 24.9221 7.06121 25.0565ZM10.5257 27.6846C10.2177 27.6846 9.97134 27.4456 9.97134 27.147C9.97134 26.8483 10.2177 26.6094 10.5257 26.6094C10.8336 26.6094 11.08 26.8483 11.08 27.147C11.08 27.4456 10.8336 27.6846 10.5257 27.6846ZM19.1021 27.147C19.1021 27.4456 18.8557 27.6846 18.5478 27.6846C18.2398 27.6846 17.9935 27.4456 17.9935 27.147C17.9935 26.8483 18.2398 26.6094 18.5478 26.6094C18.8557 26.6094 19.1021 26.8483 19.1021 27.147ZM22.9515 25.2506C22.8745 25.37 22.7513 25.4596 22.6127 25.4895C22.4742 25.5194 22.3202 25.5044 22.197 25.4298C21.9352 25.2804 21.8429 24.9519 21.9968 24.6981C22.0738 24.5786 22.197 24.489 22.3356 24.4592C22.4741 24.4293 22.6281 24.4442 22.7513 24.5189C23.0285 24.6682 23.1208 24.9967 22.9515 25.2506ZM26.2773 8.52637C26.3389 8.30238 26.4775 8.10826 26.6931 7.9888C26.8317 7.89921 27.001 7.86934 27.155 7.86934C27.463 7.86934 27.7555 8.01867 27.9249 8.30238C28.0481 8.4965 28.0789 8.73542 28.0173 8.9594C27.9557 9.18339 27.8171 9.37751 27.6015 9.49697C27.4014 9.61643 27.155 9.64629 26.924 9.58656C26.6931 9.52683 26.4929 9.39244 26.3697 9.18339C26.2465 8.98927 26.2158 8.75035 26.2773 8.52637ZM13.636 1.79188C13.636 1.31405 14.0363 0.925807 14.529 0.925807C15.0217 0.925807 15.4221 1.31405 15.4221 1.79188C15.4221 2.26972 15.0217 2.65796 14.529 2.65796C14.0363 2.65796 13.636 2.26972 13.636 1.79188ZM1.42571 9.6015C0.994577 9.36258 0.856002 8.82501 1.10236 8.40691C1.34872 7.9888 1.90304 7.85441 2.33417 8.09333C2.7653 8.33225 2.90387 8.86981 2.65751 9.28792C2.39575 9.70602 1.85684 9.84041 1.42571 9.6015ZM2.33417 23.8021C2.134 23.9216 1.88763 23.9515 1.65667 23.8917C1.42571 23.832 1.22554 23.6827 1.10236 23.4886C0.979183 23.2944 0.948382 23.0555 1.00997 22.8315C1.07156 22.6076 1.22554 22.4134 1.42571 22.294C1.62588 22.1745 1.87224 22.1447 2.1032 22.2044C2.33417 22.2641 2.53433 22.4134 2.65751 22.6076C2.90387 23.0257 2.7499 23.5632 2.33417 23.8021ZM15.4375 30.1036C15.4375 30.5814 15.0371 30.9697 14.5444 30.9697C14.0517 30.9697 13.6514 30.5814 13.6514 30.1036C13.6514 29.6258 14.0517 29.2375 14.5444 29.2375C15.0371 29.2375 15.4375 29.6258 15.4375 30.1036ZM27.9249 23.5931C27.8017 23.7872 27.6015 23.9365 27.3706 23.9963C27.1396 24.056 26.8932 24.0261 26.6931 23.9067C26.2619 23.6678 26.1234 23.1302 26.3851 22.7121C26.5083 22.518 26.7085 22.3686 26.9394 22.3089C27.0164 22.294 27.0934 22.279 27.155 22.279C27.309 22.279 27.4784 22.3238 27.6169 22.3985C27.8171 22.518 27.9711 22.7121 28.0327 22.9361C28.0789 23.1601 28.0481 23.384 27.9249 23.5931Z" fill="white"/>
<path d="M9.69215 9.28717C10.1939 9.28717 10.6006 8.89273 10.6006 8.40616C10.6006 7.91959 10.1939 7.52515 9.69215 7.52515C9.19042 7.52515 8.78369 7.91959 8.78369 8.40616C8.78369 8.89273 9.19042 9.28717 9.69215 9.28717Z" fill="white"/>
<path d="M12.3544 9.28717C12.8562 9.28717 13.2629 8.89273 13.2629 8.40616C13.2629 7.91959 12.8562 7.52515 12.3544 7.52515C11.8527 7.52515 11.446 7.91959 11.446 8.40616C11.446 8.89273 11.8527 9.28717 12.3544 9.28717Z" fill="white"/>
<path d="M9.69215 24.3547C10.1939 24.3547 10.6006 23.9602 10.6006 23.4737C10.6006 22.9871 10.1939 22.5927 9.69215 22.5927C9.19042 22.5927 8.78369 22.9871 8.78369 23.4737C8.78369 23.9602 9.19042 24.3547 9.69215 24.3547Z" fill="white"/>
<path d="M12.3394 24.3993C12.8412 24.3993 13.2479 24.0049 13.2479 23.5183C13.2479 23.0318 12.8412 22.6373 12.3394 22.6373C11.8377 22.6373 11.431 23.0318 11.431 23.5183C11.431 24.0049 11.8377 24.3993 12.3394 24.3993Z" fill="white"/>
<path d="M5.9189 15.6193C6.42062 15.6193 6.82735 15.2249 6.82735 14.7383C6.82735 14.2517 6.42062 13.8573 5.9189 13.8573C5.41717 13.8573 5.01044 14.2517 5.01044 14.7383C5.01044 15.2249 5.41717 15.6193 5.9189 15.6193Z" fill="white"/>
<path d="M5.87501 18.2027C6.37674 18.2027 6.78346 17.8082 6.78346 17.3217C6.78346 16.8351 6.37674 16.4407 5.87501 16.4407C5.37329 16.4407 4.96655 16.8351 4.96655 17.3217C4.96655 17.8082 5.37329 18.2027 5.87501 18.2027Z" fill="white"/>
<path d="M23.2574 15.6338C23.7591 15.6338 24.1658 15.2394 24.1658 14.7528C24.1658 14.2663 23.7591 13.8718 23.2574 13.8718C22.7557 13.8718 22.3489 14.2663 22.3489 14.7528C22.3489 15.2394 22.7557 15.6338 23.2574 15.6338Z" fill="white"/>
<path d="M23.2107 18.2172C23.7124 18.2172 24.1192 17.8228 24.1192 17.3362C24.1192 16.8496 23.7124 16.4552 23.2107 16.4552C22.709 16.4552 22.3022 16.8496 22.3022 17.3362C22.3022 17.8228 22.709 18.2172 23.2107 18.2172Z" fill="white"/>
<path d="M16.8836 24.3547C17.3853 24.3547 17.792 23.9602 17.792 23.4737C17.792 22.9871 17.3853 22.5927 16.8836 22.5927C16.3818 22.5927 15.9751 22.9871 15.9751 23.4737C15.9751 23.9602 16.3818 24.3547 16.8836 24.3547Z" fill="white"/>
<path d="M19.5458 24.3992C20.0476 24.3992 20.4543 24.0048 20.4543 23.5182C20.4543 23.0316 20.0476 22.6372 19.5458 22.6372C19.0441 22.6372 18.6374 23.0316 18.6374 23.5182C18.6374 24.0048 19.0441 24.3992 19.5458 24.3992Z" fill="white"/>
<path d="M16.7449 9.28717C17.2467 9.28717 17.6534 8.89273 17.6534 8.40616C17.6534 7.91959 17.2467 7.52515 16.7449 7.52515C16.2432 7.52515 15.8365 7.91959 15.8365 8.40616C15.8365 8.89273 16.2432 9.28717 16.7449 9.28717Z" fill="white"/>
<path d="M19.4072 9.28717C19.9089 9.28717 20.3156 8.89273 20.3156 8.40616C20.3156 7.91959 19.9089 7.52515 19.4072 7.52515C18.9054 7.52515 18.4987 7.91959 18.4987 8.40616C18.4987 8.89273 18.9054 9.28717 19.4072 9.28717Z" fill="white"/>
</svg>
