<svg width="20" height="20" viewBox="0 0 20 20" fill="none" xmlns="http://www.w3.org/2000/svg">
<path d="M15 10.9834V8.33341C14.9988 7.15268 14.5798 6.01047 13.8172 5.10906C13.0545 4.20765 11.9975 3.6052 10.8333 3.40841V2.50008C10.8333 2.27907 10.7455 2.06711 10.5892 1.91083C10.433 1.75455 10.221 1.66675 9.99998 1.66675C9.77897 1.66675 9.567 1.75455 9.41072 1.91083C9.25444 2.06711 9.16665 2.27907 9.16665 2.50008V3.40841C8.00243 3.6052 6.94542 4.20765 6.1828 5.10906C5.42019 6.01047 5.00118 7.15268 4.99998 8.33341V10.9834C4.51369 11.1553 4.09248 11.4735 3.7941 11.8942C3.49571 12.3149 3.33476 12.8176 3.33331 13.3334V15.0001C3.33331 15.2211 3.42111 15.4331 3.57739 15.5893C3.73367 15.7456 3.94563 15.8334 4.16665 15.8334H6.78331C6.97522 16.5396 7.39415 17.1629 7.97548 17.6074C8.55681 18.0518 9.26823 18.2926 9.99998 18.2926C10.7317 18.2926 11.4432 18.0518 12.0245 17.6074C12.6058 17.1629 13.0247 16.5396 13.2166 15.8334H15.8333C16.0543 15.8334 16.2663 15.7456 16.4226 15.5893C16.5788 15.4331 16.6666 15.2211 16.6666 15.0001V13.3334C16.6652 12.8176 16.5042 12.3149 16.2059 11.8942C15.9075 11.4735 15.4863 11.1553 15 10.9834ZM6.66665 8.33341C6.66665 7.44936 7.01784 6.60151 7.64296 5.97639C8.26808 5.35127 9.11592 5.00008 9.99998 5.00008C10.884 5.00008 11.7319 5.35127 12.357 5.97639C12.9821 6.60151 13.3333 7.44936 13.3333 8.33341V10.8334H6.66665V8.33341ZM9.99998 16.6667C9.70912 16.665 9.42379 16.5872 9.17234 16.441C8.92089 16.2948 8.71207 16.0853 8.56665 15.8334H11.4333C11.2879 16.0853 11.0791 16.2948 10.8276 16.441C10.5762 16.5872 10.2908 16.665 9.99998 16.6667ZM15 14.1667H4.99998V13.3334C4.99998 13.1124 5.08778 12.9004 5.24406 12.7442C5.40034 12.5879 5.6123 12.5001 5.83331 12.5001H14.1666C14.3877 12.5001 14.5996 12.5879 14.7559 12.7442C14.9122 12.9004 15 13.1124 15 13.3334V14.1667Z" fill="#F0F0F0"/>
</svg>
