<svg width="19" height="19" viewBox="0 0 19 19" fill="none" xmlns="http://www.w3.org/2000/svg">
<path d="M6.62451 8.34436C5.83554 8.2107 4.72702 8.13838 3.97803 8.49084L10.5093 15.0221C10.8604 14.2321 10.7884 13.1501 10.6558 12.3756L12.0767 13.7965C12.0549 14.7139 11.8451 15.7047 11.1626 16.3873C11.0439 16.5654 10.6877 16.684 10.3315 16.3873L6.94678 13.0026L3.20654 16.7438C3.02842 16.9219 2.61201 16.9813 2.37451 16.7438C2.13721 16.5064 2.13734 16.1502 2.37451 15.9127L6.11572 12.1715L2.73096 8.78772C2.49346 8.55022 2.49346 8.19319 2.73096 7.95569C3.4133 7.27349 4.40372 7.06258 5.3208 7.04065L6.62451 8.34436ZM10.6284 2.31506C10.8659 2.07808 11.2221 2.07782 11.4595 2.31506L16.6841 7.54065C16.9216 7.77815 16.922 8.13459 16.8032 8.49084L14.9028 10.3903C14.6653 10.6278 14.3093 10.6278 14.0718 10.3903L13.6558 9.97522L13.5483 10.0817L12.604 9.13831L13.1216 8.60901C13.359 8.3717 13.7152 8.37183 13.9526 8.60901L14.3687 9.02502L15.437 7.95569L11.0435 3.56213L9.91553 4.63147L10.3315 5.04651C10.5096 5.22456 10.6871 5.52159 10.3315 5.87756L9.8374 6.37073L9.03564 5.56995L9.14404 5.46252L8.72803 5.04651C8.54996 4.86835 8.43121 4.51227 8.72803 4.21545L10.6284 2.31506Z" fill="white" fill-opacity="0.25"/>
<rect x="2" y="2.08325" width="1.53204" height="19" rx="0.766018" transform="rotate(-45 2 2.08325)" fill="white" fill-opacity="0.25"/>
</svg>
