<svg width="25" height="25" viewBox="0 0 25 25" fill="none" xmlns="http://www.w3.org/2000/svg">
<path d="M7.37109 4.98047H17.6289V8.65234H7.37109V4.98047Z" fill="#F0F0F0"/>
<path d="M7.37109 12.793H17.6289V20.0195H7.37109V12.793Z" fill="#F0F0F0"/>
<path d="M12.5 1.26953C10.2788 1.26953 8.10753 1.92819 6.26069 3.16221C4.41385 4.39623 2.97441 6.15019 2.1244 8.20229C1.2744 10.2544 1.052 12.5125 1.48533 14.691C1.91866 16.8695 2.98826 18.8705 4.55886 20.4411C6.12947 22.0117 8.13055 23.0813 10.309 23.5147C12.4875 23.948 14.7456 23.7256 16.7977 22.8756C18.8498 22.0256 20.6038 20.5862 21.8378 18.7393C23.0718 16.8925 23.7305 14.7212 23.7305 12.5C23.7263 9.52276 22.5418 6.66865 20.4366 4.56343C18.3314 2.4582 15.4772 1.27366 12.5 1.26953ZM19.5313 15.957H18.2148V20.3125C18.2138 20.3899 18.1826 20.4638 18.1279 20.5185C18.0732 20.5733 17.9993 20.6045 17.9219 20.6055H7.07813C7.00074 20.6045 6.92681 20.5733 6.87209 20.5185C6.81736 20.4638 6.78617 20.3899 6.78516 20.3125V15.957H5.46876C5.18385 15.957 4.91062 15.8439 4.70917 15.6424C4.50771 15.4409 4.39454 15.1677 4.39454 14.8828V9.72656C4.39454 9.58549 4.42232 9.44581 4.47631 9.31548C4.53029 9.18515 4.60942 9.06673 4.70917 8.96697C4.80892 8.86722 4.92734 8.7881 5.05767 8.73411C5.188 8.68013 5.32769 8.65234 5.46876 8.65234H6.78516V4.6875C6.78617 4.61011 6.81736 4.53618 6.87209 4.48146C6.92681 4.42673 7.00074 4.39554 7.07813 4.39453H17.9219C17.9993 4.39554 18.0732 4.42673 18.1279 4.48146C18.1826 4.53618 18.2138 4.61011 18.2148 4.6875V8.65234H19.5313C19.6723 8.65234 19.812 8.68013 19.9423 8.73411C20.0727 8.7881 20.1911 8.86722 20.2908 8.96697C20.3906 9.06673 20.4697 9.18515 20.5237 9.31548C20.5777 9.44581 20.6055 9.58549 20.6055 9.72656V14.8828C20.6055 15.1677 20.4923 15.4409 20.2908 15.6424C20.0894 15.8439 19.8162 15.957 19.5313 15.957Z" fill="#F0F0F0"/>
<path d="M19.5312 9.23828H5.46875C5.33925 9.23828 5.21505 9.28973 5.12348 9.3813C5.03191 9.47287 4.98047 9.59706 4.98047 9.72656V14.8828C4.98047 15.0123 5.03191 15.1365 5.12348 15.2281C5.21505 15.3196 5.33925 15.3711 5.46875 15.3711H6.78516V12.5C6.78617 12.4226 6.81736 12.3487 6.87208 12.294C6.92681 12.2392 7.00074 12.208 7.07813 12.207H17.9219C17.9993 12.208 18.0732 12.2392 18.1279 12.294C18.1826 12.3487 18.2138 12.4226 18.2148 12.5V15.3711H19.5312C19.6608 15.3711 19.7849 15.3196 19.8765 15.2281C19.9681 15.1365 20.0195 15.0123 20.0195 14.8828V9.72656C20.0195 9.59706 19.9681 9.47287 19.8765 9.3813C19.7849 9.28973 19.6608 9.23828 19.5312 9.23828Z" fill="#F0F0F0"/>
</svg>
