<svg width="10" height="16" viewBox="0 0 10 16" fill="none" xmlns="http://www.w3.org/2000/svg">
<path d="M8.12452 15.2908C7.98743 15.2916 7.85154 15.2654 7.72462 15.2135C7.59771 15.1617 7.48227 15.0853 7.38494 14.9888L1.13494 8.73876C0.940929 8.54359 0.832031 8.27958 0.832031 8.00438C0.832031 7.72919 0.940929 7.46518 1.13494 7.27001L7.38494 1.02001C7.58421 0.849355 7.84054 0.760182 8.1027 0.770308C8.36487 0.780434 8.61355 0.889113 8.79907 1.07463C8.98458 1.26014 9.09326 1.50883 9.10339 1.77099C9.11352 2.03316 9.02434 2.28948 8.85369 2.48876L3.34327 7.99917L8.85369 13.5096C8.99996 13.6547 9.09993 13.8399 9.14096 14.0417C9.18198 14.2436 9.16222 14.4532 9.08418 14.6438C9.00613 14.8345 8.8733 14.9977 8.70248 15.1129C8.53167 15.228 8.33054 15.29 8.12452 15.2908Z" fill="white"/>
</svg>
