<svg width="25" height="25" viewBox="0 0 25 25" fill="none" xmlns="http://www.w3.org/2000/svg">
<path fill-rule="evenodd" clip-rule="evenodd" d="M12.5 0.195312C15.8978 0.195312 18.974 1.57261 21.2007 3.79932C23.4274 6.02603 24.8047 9.10225 24.8047 12.5C24.8047 15.8978 23.4274 18.974 21.2007 21.2007C18.974 23.4274 15.8978 24.8047 12.5 24.8047C9.10225 24.8047 6.02603 23.4274 3.79932 21.2007C1.57261 18.974 0.195312 15.8978 0.195312 12.5C0.195312 9.10225 1.57261 6.02603 3.79932 3.79932C6.02603 1.57261 9.10225 0.195312 12.5 0.195312ZM8.57876 10.4938C8.02485 10.4938 7.52329 10.7184 7.16025 11.0815C6.79717 11.4446 6.57261 11.9461 6.57261 12.5C6.57261 13.054 6.79722 13.5555 7.16025 13.9185C7.52334 14.2816 8.02485 14.5062 8.57876 14.5062C9.0978 14.5062 9.57085 14.3089 9.92705 13.9854L14.4736 16.7005C14.4354 16.8552 14.4151 17.0168 14.4151 17.1833C14.4151 17.7372 14.6397 18.2388 15.0027 18.6018C15.3658 18.9649 15.8673 19.1895 16.4212 19.1895C16.9752 19.1895 17.4768 18.9649 17.8397 18.6018C18.2028 18.2388 18.4274 17.7372 18.4274 17.1833C18.4274 16.6293 18.2028 16.1278 17.8397 15.7648C17.4767 15.4018 16.9751 15.1772 16.4212 15.1772C15.9022 15.1772 15.4292 15.3744 15.0729 15.6979L10.5264 12.9828C10.5646 12.8282 10.5849 12.6665 10.5849 12.5C10.5849 12.3336 10.5646 12.1719 10.5264 12.0173L15.0729 9.3022C15.4292 9.62573 15.9022 9.8229 16.4212 9.8229C16.9751 9.8229 17.4767 9.59834 17.8397 9.23525C18.2028 8.87222 18.4274 8.37065 18.4274 7.81675C18.4274 7.26279 18.2028 6.76128 17.8397 6.39824C17.4768 6.03511 16.9752 5.81055 16.4212 5.81055C15.8673 5.81055 15.3658 6.03511 15.0027 6.39819C14.6397 6.76123 14.4151 7.26279 14.4151 7.8167C14.4151 7.98311 14.4354 8.14482 14.4736 8.29946L9.92705 11.0146C9.5708 10.691 9.09775 10.4938 8.57876 10.4938Z" fill="#F0F0F0"/>
</svg>
