<svg width="20" height="20" viewBox="0 0 20 20" fill="none" xmlns="http://www.w3.org/2000/svg">
<path d="M10.4917 10.8333L8.57502 12.7416C8.49691 12.8191 8.43492 12.9112 8.39261 13.0128C8.3503 13.1143 8.32852 13.2232 8.32852 13.3333C8.32852 13.4433 8.3503 13.5522 8.39261 13.6537C8.43492 13.7553 8.49691 13.8475 8.57502 13.9249C8.65249 14.003 8.74466 14.065 8.84621 14.1073C8.94776 14.1496 9.05668 14.1714 9.16669 14.1714C9.2767 14.1714 9.38562 14.1496 9.48717 14.1073C9.58872 14.065 9.68089 14.003 9.75835 13.9249L13.0917 10.5916C13.1676 10.5123 13.227 10.4189 13.2667 10.3166C13.35 10.1137 13.35 9.88614 13.2667 9.68325C13.227 9.58096 13.1676 9.48751 13.0917 9.40825L9.75835 6.07492C9.68066 5.99722 9.58841 5.93559 9.4869 5.89354C9.38538 5.85149 9.27657 5.82984 9.16669 5.82984C9.0568 5.82984 8.948 5.85149 8.84648 5.89354C8.74496 5.93559 8.65272 5.99722 8.57502 6.07492C8.49732 6.15262 8.43569 6.24486 8.39364 6.34638C8.35159 6.4479 8.32994 6.5567 8.32994 6.66659C8.32994 6.77647 8.35159 6.88528 8.39364 6.98679C8.43569 7.08831 8.49732 7.18055 8.57502 7.25825L10.4917 9.16659H2.50002C2.27901 9.16659 2.06704 9.25438 1.91076 9.41067C1.75448 9.56695 1.66669 9.77891 1.66669 9.99992C1.66669 10.2209 1.75448 10.4329 1.91076 10.5892C2.06704 10.7455 2.27901 10.8333 2.50002 10.8333H10.4917ZM10 1.66659C8.4426 1.65963 6.91439 2.08926 5.58874 2.90675C4.2631 3.72423 3.19307 4.89684 2.50002 6.29159C2.40056 6.4905 2.3842 6.72077 2.45453 6.93175C2.52485 7.14273 2.67611 7.31713 2.87502 7.41659C3.07393 7.51604 3.30421 7.53241 3.51519 7.46208C3.72616 7.39176 3.90056 7.2405 4.00002 7.04159C4.52685 5.97769 5.32821 5.07377 6.32131 4.42324C7.31441 3.77272 8.46321 3.39918 9.64898 3.34125C10.8348 3.28331 12.0145 3.54307 13.0663 4.09368C14.1181 4.64429 15.0037 5.46578 15.6318 6.47325C16.2598 7.48072 16.6074 8.63763 16.6387 9.82441C16.67 11.0112 16.3837 12.1848 15.8096 13.2239C15.2355 14.2631 14.3943 15.13 13.373 15.7353C12.3516 16.3405 11.1872 16.662 10 16.6666C8.75742 16.672 7.53848 16.3269 6.4831 15.671C5.42771 15.015 4.57865 14.0748 4.03335 12.9583C3.9339 12.7593 3.7595 12.6081 3.54852 12.5378C3.33754 12.4674 3.10727 12.4838 2.90835 12.5833C2.70944 12.6827 2.55818 12.8571 2.48786 13.0681C2.41753 13.2791 2.4339 13.5093 2.53335 13.7083C3.19404 15.0378 4.19795 16.1668 5.44125 16.9783C6.68454 17.7898 8.12206 18.2544 9.60512 18.3241C11.0882 18.3937 12.5629 18.0659 13.8768 17.3745C15.1907 16.6831 16.296 15.6532 17.0784 14.3914C17.8608 13.1296 18.2919 11.6817 18.3271 10.1974C18.3623 8.71314 18.0003 7.24641 17.2786 5.94895C16.5568 4.65148 15.5016 3.57039 14.2219 2.81751C12.9423 2.06462 11.4847 1.66728 10 1.66659Z" fill="#F0F0F0"/>
</svg>
